<?xml version="1.0" encoding="utf-8"?>
<!-- Generator: Adobe Illustrator 22.0.0, SVG Export Plug-In . SVG Version: 6.00 Build 0)  -->
<svg version="1.1" id="图层_1" xmlns="http://www.w3.org/2000/svg" xmlns:xlink="http://www.w3.org/1999/xlink" x="0px" y="0px"
	 viewBox="0 0 55.9 24" style="enable-background:new 0 0 55.9 24;" xml:space="preserve">
<style type="text/css">
	.st0{fill:#0083E9;}
</style>
<g>
	<g>
		<g>
			<g id="XMLID_135_">
				<path id="XMLID_137_" class="st0" d="M0.5,3.7L1.9,3v12.4c0,0.4,0.3,0.7,0.7,0.7h1.9V1.7v-1L0.9,2.5C0.6,2.6,0.5,2.8,0.5,3.1
					V3.7z"/>
				<path id="XMLID_136_" class="st0" d="M14.9,14.5V3.2h2.3c0.5,0,0.9-0.4,0.9-0.9V0.7h-2.6v0.8c0,0.4-0.3,0.7-0.7,0.7h-4.2V0.7h-2
					C8.3,0.7,8.1,1,8.1,1.3v0.9H5.6C5.3,2.2,5,2.4,5,2.7v0.4h3.1v1.4c0,2.5-0.5,5.1-1.4,7.4L5,16.1h1.9c0.4,0,0.7-0.2,0.9-0.6
					l1.3-3.4c1-2.5,1.5-5.1,1.5-7.7V3.2h1.7l0,12.2c0,0.4,0.3,0.7,0.7,0.7h1.1h4.4v-0.4c0-0.3-0.3-0.6-0.6-0.6h-2.5
					C15.2,15.1,14.9,14.8,14.9,14.5z"/>
			</g>
			<g id="XMLID_131_">
				<path id="XMLID_134_" class="st0" d="M47.5,1.2v6.4h2.6V2.2c0-0.3,0.2-0.5,0.5-0.5h1.9c0.2,0,0.4,0.2,0.4,0.4v0.3
					c0,0.2-0.1,0.4-0.3,0.6l0,0c-0.4,0.3-0.4,0.9,0,1.1v0c0.2,0.1,0.3,0.3,0.3,0.6v1.4c0,0.3-0.2,0.5-0.5,0.5h-0.8
					c-0.3,0-0.5,0.2-0.5,0.5v0.5h1.8l0,0h1.8c0.4,0,0.8-0.3,0.8-0.8V4.7c0-0.2-0.1-0.4-0.3-0.6l0,0c-0.4-0.3-0.4-0.9,0-1.1l0,0
					c0.2-0.1,0.3-0.3,0.3-0.6V1.3c0-0.4-0.3-0.7-0.7-0.7l-6.8,0C47.7,0.7,47.5,0.9,47.5,1.2z"/>
				<path id="XMLID_133_" class="st0" d="M48,7.9h-2.2v8.2h1.9c0.4,0,0.7-0.3,0.7-0.7V9.7h4.5v4.8c0,0.3-0.3,0.6-0.6,0.6h-2
					c-0.3,0-0.6,0.3-0.6,0.6v0.4h3.3h1.7c0.5,0,0.8-0.4,0.8-0.8V9.7V9.2c0-0.3-0.2-0.5-0.5-0.5h-6.6V8.4C48.4,8.1,48.2,7.9,48,7.9z"
					/>
				<path id="XMLID_132_" class="st0" d="M46.9,2.3V1.7c0-0.3-0.2-0.5-0.5-0.5h-2V0.7h-2.3c-0.2,0-0.3,0.1-0.3,0.3v0.3h-3.6
					c-0.3,0-0.5,0.2-0.5,0.5v0.5h4v1.2h-3.6c-0.3,0-0.5,0.2-0.5,0.5v0.5h4v1.4h-3.6c-0.3,0-0.5,0.2-0.5,0.5v0.5h4v0.1
					c0,0.4-0.2,0.7-0.6,0.8l-2.1,0.7c-0.7,0.2-1.2,0.9-1.2,1.6v5.4c0,0.4,0.3,0.7,0.7,0.7h1.9V9.7c0-0.6,0.4-1,0.9-1.2l2.3-0.7
					c0.4-0.1,0.7-0.5,0.7-0.9v0h2.4V6.3c0-0.3-0.2-0.5-0.5-0.5h-2V4.5h2.4V3.9c0-0.3-0.2-0.5-0.5-0.5h-2V2.3H46.9z"/>
			</g>
			<g id="XMLID_124_">
				<path id="XMLID_130_" class="st0" d="M19.1,14.7c0,0.8,0.7,1.5,1.5,1.5h10.3h1.8c0.4,0,0.8-0.4,0.8-0.8v-1.8
					c0-0.4-0.4-0.8-0.8-0.8h-1.8h-8.1c-0.3,0-0.5,0.2-0.5,0.5v0.5h8c0.3,0,0.6,0.3,0.6,0.6v0.1c0,0.3-0.3,0.6-0.6,0.6h-7.6
					c-0.5,0-1-0.4-1-1V2.8c0-0.6,0.5-1.1,1.1-1.1H33c0.6,0,1.1,0.5,1.1,1.1v13.3H36c0.4,0,0.7-0.3,0.7-0.7V2.2
					c0-0.9-0.7-1.6-1.6-1.6H20.7c-0.9,0-1.6,0.7-1.6,1.6V14.7z"/>
				<path id="XMLID_129_" class="st0" d="M22.3,11.7h11.3v-0.5c0-0.3-0.2-0.5-0.5-0.5H22.8c-0.3,0-0.5,0.2-0.5,0.5V11.7z"/>
				<path id="XMLID_126_" class="st0" d="M30.3,8.7c2.1-1.1,2.3-2.9,2.3-4.4V3.5c0-0.5-0.4-0.9-0.9-0.9h-1.4c-0.4,0-0.8,0.1-1.1,0.2
					l-0.1,0c-0.7,0.2-1.4,0.2-2.1,0l-0.3-0.1c-0.3-0.1-0.7-0.1-1-0.1h-1.4c-0.5,0-0.9,0.4-0.9,0.9v0.8c0,1.5,0.2,3.3,2.3,4.4
					c-0.2,0-0.3,0-0.5,0h-2.3c-0.3,0-0.5,0.2-0.5,0.5v0.5c0,0,2.1,0,2.5,0c1.2,0,2.2-0.1,3.1-0.2c0.9,0.2,1.9,0.2,3.1,0.2
					c0.4,0,2.5,0,2.5,0V9.2c0-0.3-0.2-0.5-0.5-0.5h-2.3C30.6,8.7,30.5,8.7,30.3,8.7z M25.9,5V4c0-0.2,0.2-0.4,0.4-0.4l0.2,0.1
					c1,0.3,2.1,0.3,3.1,0l0.1,0c0.2,0,0.4,0.2,0.4,0.4v1c0,0.9-0.7,2.2-2.1,3C26.6,7.2,25.9,5.9,25.9,5z"/>
			</g>
		</g>
	</g>
	<g>
		<g>
			<path id="XMLID_252_" class="st0" d="M5,18.5h0.7v2.3c0,0.6,0.3,0.9,0.9,0.9c0.3,0,0.5-0.1,0.6-0.3c0.2-0.2,0.2-0.4,0.2-0.7v-2.3
				h0.7v2.3c0,0.4-0.1,0.7-0.3,1c-0.2,0.3-0.5,0.5-0.9,0.6V24H6.2v-1.7c-0.2-0.1-0.4-0.2-0.6-0.3c-0.2-0.1-0.3-0.3-0.4-0.5
				S5,21.2,5,20.9V18.5z"/>
			<path id="XMLID_249_" class="st0" d="M8.8,20.4c0-0.4,0.1-0.7,0.3-1c0.2-0.3,0.4-0.5,0.7-0.7c0.3-0.2,0.6-0.2,0.9-0.2
				c0.3,0,0.6,0.1,0.9,0.2s0.6,0.4,0.7,0.7c0.2,0.3,0.3,0.6,0.3,1c0,0.3-0.1,0.6-0.2,0.9c-0.1,0.3-0.4,0.6-0.6,0.8
				c-0.3,0.2-0.6,0.3-1,0.3c-0.3,0-0.6-0.1-0.9-0.2c-0.3-0.1-0.5-0.2-0.7-0.4c-0.2-0.2-0.3-0.4-0.4-0.6C8.9,20.9,8.8,20.6,8.8,20.4
				C8.8,20.4,8.8,20.4,8.8,20.4C8.8,20.4,8.8,20.4,8.8,20.4z M9.5,20.3c0,0.4,0.1,0.7,0.3,1c0.2,0.3,0.5,0.4,1,0.4
				c0.2,0,0.4,0,0.6-0.1c0.2-0.1,0.3-0.2,0.4-0.4c0.1-0.2,0.2-0.5,0.2-0.8c0-0.4-0.1-0.6-0.4-0.9c-0.2-0.2-0.5-0.3-0.9-0.3
				c-0.3,0-0.5,0.1-0.7,0.2c-0.2,0.1-0.3,0.3-0.4,0.5C9.6,19.9,9.6,20.1,9.5,20.3z"/>
			<path id="XMLID_247_" class="st0" d="M13.5,18.5h0.7v2.3c0,0.2,0.1,0.3,0.1,0.5c0.1,0.1,0.2,0.2,0.3,0.3c0.1,0.1,0.3,0.1,0.4,0.1
				c0.3,0,0.5-0.1,0.6-0.3c0.2-0.2,0.3-0.4,0.3-0.6v-2.3h0.7v2.3c0,0.3-0.1,0.6-0.2,0.8c-0.1,0.2-0.3,0.4-0.6,0.6
				c-0.3,0.1-0.5,0.2-0.8,0.2c-0.4,0-0.8-0.2-1.1-0.4c-0.3-0.3-0.5-0.7-0.5-1.3V18.5z"/>
			<path id="XMLID_245_" class="st0" d="M17.7,21.1v-3.6h0.7v1h1.4v0.7h-1.4v2.1c0,0.1,0,0.2,0.1,0.3c0.1,0.1,0.2,0.1,0.4,0.1h0.9
				v0.7h-0.9c-0.3,0-0.5-0.1-0.7-0.2c-0.2-0.1-0.3-0.3-0.4-0.4C17.7,21.6,17.7,21.4,17.7,21.1z"/>
			<path id="XMLID_243_" class="st0" d="M20.6,18.5h0.7v2.3c0,0.2,0.1,0.3,0.1,0.5c0.1,0.1,0.2,0.2,0.3,0.3c0.1,0.1,0.3,0.1,0.4,0.1
				c0.3,0,0.5-0.1,0.6-0.3c0.2-0.2,0.3-0.4,0.3-0.6v-2.3h0.7v2.3c0,0.3-0.1,0.6-0.2,0.8c-0.1,0.2-0.3,0.4-0.6,0.6
				c-0.3,0.1-0.5,0.2-0.8,0.2c-0.4,0-0.8-0.2-1.1-0.4c-0.3-0.3-0.5-0.7-0.5-1.3V18.5z"/>
			<path id="XMLID_241_" class="st0" d="M24.5,17.2h0.7v3.2c0,0.2,0,0.5,0.1,0.7c0.1,0.2,0.2,0.4,0.4,0.5c0.2,0.1,0.4,0.2,0.6,0.2
				c0.3,0,0.5-0.1,0.7-0.2c0.2-0.1,0.3-0.3,0.4-0.5c0.1-0.2,0.1-0.4,0.1-0.6c0-0.3-0.1-0.5-0.2-0.7c-0.1-0.2-0.3-0.3-0.4-0.4
				c-0.2-0.1-0.4-0.1-0.6-0.1c-0.2,0-0.4,0-0.5,0.1c-0.1,0.1-0.3,0.1-0.5,0.2v-0.7c0.3-0.2,0.6-0.3,0.9-0.3c0.3,0,0.5,0,0.7,0.1
				c0.2,0.1,0.4,0.2,0.6,0.4c0.2,0.2,0.3,0.4,0.4,0.6c0.1,0.2,0.2,0.5,0.2,0.7c0,0.4-0.1,0.7-0.2,1c-0.2,0.3-0.4,0.6-0.7,0.7
				c-0.3,0.2-0.6,0.3-1,0.3c-0.4,0-0.7-0.1-1-0.3c-0.3-0.2-0.5-0.4-0.7-0.7c-0.2-0.3-0.2-0.6-0.2-1V17.2z"/>
			<path id="XMLID_239_" class="st0" d="M32.2,22.4v-2.2c0-0.2-0.1-0.4-0.2-0.5c-0.1-0.2-0.2-0.3-0.4-0.4c-0.2-0.1-0.4-0.1-0.6-0.1
				c-0.2,0-0.4,0-0.5,0.1c-0.2,0.1-0.3,0.2-0.5,0.4c-0.1,0.2-0.2,0.4-0.2,0.7c0,0.3,0.1,0.5,0.2,0.7c0.1,0.2,0.3,0.4,0.5,0.5
				c0.2,0.1,0.4,0.2,0.6,0.2c0.4,0,0.7-0.2,1-0.5v0.8c-0.1,0.1-0.3,0.2-0.3,0.2c-0.1,0-0.2,0.1-0.3,0.1c-0.1,0-0.3,0-0.4,0
				c-0.3,0-0.6-0.1-0.9-0.2c-0.3-0.2-0.5-0.4-0.7-0.7c-0.2-0.3-0.3-0.6-0.3-1c0-0.4,0.1-0.7,0.2-1c0.2-0.3,0.4-0.5,0.7-0.7
				c0.3-0.2,0.7-0.3,1.1-0.3c0.3,0,0.6,0,0.8,0.1c0.2,0.1,0.4,0.2,0.6,0.4c0.2,0.2,0.3,0.3,0.4,0.5c0.1,0.2,0.1,0.4,0.1,0.7v2.1
				H32.2z"/>
			<path id="XMLID_237_" class="st0" d="M33.6,22.4V20c0-0.3,0.1-0.5,0.2-0.8c0.1-0.2,0.3-0.4,0.6-0.6c0.3-0.1,0.5-0.2,0.8-0.2
				c0.2,0,0.5,0.1,0.7,0.2c0.3,0.1,0.5,0.3,0.6,0.5c0.2,0.2,0.3,0.6,0.3,0.9v2.3h-0.7v-2.2c0-0.3-0.1-0.5-0.3-0.7
				c-0.2-0.2-0.4-0.3-0.7-0.3c-0.3,0-0.5,0.1-0.7,0.3c-0.2,0.2-0.3,0.4-0.3,0.7v2.3H33.6z"/>
			<path id="XMLID_235_" class="st0" d="M49.2,22.4v-2.3c0-0.3,0.1-0.5,0.2-0.8c0.1-0.2,0.3-0.4,0.6-0.6c0.3-0.1,0.5-0.2,0.8-0.2
				c0.2,0,0.5,0.1,0.7,0.2c0.3,0.1,0.5,0.3,0.6,0.5c0.2,0.2,0.3,0.6,0.3,0.9v2.3h-0.7v-2.2c0-0.3-0.1-0.5-0.3-0.7
				c-0.2-0.2-0.4-0.3-0.7-0.3c-0.3,0-0.5,0.1-0.7,0.3c-0.2,0.2-0.3,0.4-0.3,0.7v2.3H49.2z"/>
			<path id="XMLID_233_" class="st0" d="M38.4,23.2c0.2,0.1,0.4,0.1,0.6,0.2c0.2,0,0.3,0,0.5,0c0.2,0,0.5,0,0.6-0.1
				c0.2-0.1,0.3-0.2,0.4-0.4c0.1-0.2,0.2-0.4,0.2-0.6v-1.8c0-0.3-0.1-0.5-0.2-0.7c-0.1-0.2-0.2-0.4-0.4-0.5
				c-0.2-0.1-0.4-0.2-0.6-0.2c-0.2,0-0.4,0-0.6,0.1c-0.2,0.1-0.3,0.2-0.5,0.4c-0.1,0.2-0.2,0.4-0.2,0.8c0,0,0,0.1,0,0.1
				c0,0.2,0.1,0.4,0.2,0.5c0.1,0.2,0.2,0.3,0.4,0.4c0.2,0.1,0.4,0.2,0.6,0.2c0.3,0,0.6-0.1,0.9-0.3v0.7c-0.3,0.2-0.7,0.2-1,0.2
				c-0.3,0-0.7-0.1-0.9-0.3c-0.3-0.2-0.5-0.4-0.7-0.7c-0.2-0.3-0.2-0.6-0.2-0.9c0-0.4,0.1-0.7,0.2-0.9c0.1-0.3,0.3-0.5,0.5-0.6
				c0.2-0.2,0.4-0.3,0.6-0.3c0.2-0.1,0.4-0.1,0.6-0.1c0.2,0,0.5,0,0.7,0.1c0.2,0.1,0.4,0.2,0.6,0.4c0.2,0.2,0.3,0.3,0.4,0.6
				c0.1,0.2,0.2,0.4,0.2,0.7v1.9c0,0.1,0,0.3-0.1,0.5c0,0.2-0.1,0.4-0.3,0.6c-0.1,0.2-0.3,0.4-0.6,0.6c-0.3,0.2-0.6,0.2-1,0.2
				c-0.4,0-0.9-0.1-1.3-0.2L38.4,23.2z"/>
			<path id="XMLID_231_" class="st0" d="M42.8,22.1c0-0.1,0.1-0.3,0.2-0.4c0.1-0.1,0.2-0.2,0.4-0.2c0.2,0,0.3,0.1,0.4,0.2
				c0.1,0.1,0.2,0.2,0.2,0.4c0,0.2-0.1,0.3-0.2,0.4c-0.1,0.1-0.2,0.2-0.4,0.2c-0.1,0-0.3-0.1-0.4-0.2C42.8,22.4,42.8,22.3,42.8,22.1
				z"/>
			<path id="XMLID_229_" class="st0" d="M45.7,20.4c0-0.5,0.2-1,0.5-1.4c0.3-0.4,0.8-0.6,1.4-0.6h0.7v0.7h-0.6c-0.2,0-0.4,0-0.6,0.1
				c-0.2,0.1-0.4,0.2-0.5,0.4c-0.1,0.2-0.2,0.4-0.2,0.7c0,0.2,0,0.4,0.1,0.6c0.1,0.2,0.2,0.4,0.4,0.5c0.2,0.1,0.4,0.2,0.7,0.2h0.6
				v0.7h-0.7c-0.4,0-0.8-0.1-1.1-0.3c-0.3-0.2-0.5-0.4-0.7-0.7C45.7,21,45.7,20.7,45.7,20.4z"/>
		</g>
	</g>
</g>
</svg>
