<svg id="图层_1" data-name="图层 1" xmlns="http://www.w3.org/2000/svg" xmlns:xlink="http://www.w3.org/1999/xlink" viewBox="0 0 93.05 85.69"><defs><linearGradient id="未命名的渐变_49" x1="63.94" y1="71.8" x2="63.94" y2="-1.84" gradientUnits="userSpaceOnUse"><stop offset="0" stop-color="#2cdfbb"/><stop offset="0.99" stop-color="#12b9cd"/></linearGradient><linearGradient id="未命名的渐变_49-2" x1="53.61" y1="71.8" x2="53.61" y2="-1.84" xlink:href="#未命名的渐变_49"/><linearGradient id="未命名的渐变_61" x1="32.09" y1="87.97" x2="32.09" y2="46.47" gradientUnits="userSpaceOnUse"><stop offset="0" stop-color="#56c5f4"/><stop offset="0.03" stop-color="#53c2f4"/><stop offset="1" stop-color="#007ce9"/></linearGradient></defs><title>云端储存</title><path d="M82.89,47.43a8,8,0,0,0-10.38-.51,7.1,7.1,0,0,1-9.29-.49l-6-5.72A8,8,0,0,0,47,40l-12.2,8.68a17.48,17.48,0,0,1,4.5,5.51,15.39,15.39,0,0,1,4.73-.74A15.56,15.56,0,0,1,59.28,66,12.43,12.43,0,0,1,69,78.1c0,.26,0,.52,0,.77h19a5.1,5.1,0,0,0,5.11-5.1V57Z" fill="url(#未命名的渐变_49)"/><path d="M45.88,38.35a10,10,0,0,1,12.72.91l6,5.72a5.11,5.11,0,0,0,6.69.36,10,10,0,0,1,13,.63l8.79,8.27V5.11A5.11,5.11,0,0,0,87.94,0H19.28a5.11,5.11,0,0,0-5.11,5.11V47.79a17.3,17.3,0,0,1,18.95-.36Z" fill="url(#未命名的渐变_49-2)"/><path d="M77.58,21.83A7.55,7.55,0,1,1,70,14.28,7.55,7.55,0,0,1,77.58,21.83Z" fill="#fff"/><path d="M7.71,85.69C3.3,85.69,0,80.49,0,75.84A9.88,9.88,0,0,1,9.08,66l2.57-.2-.23-2.57c0-.37-.06-.74-.06-1.12A12.55,12.55,0,0,1,35.74,58l1,2.72,2.58-1.29a10.51,10.51,0,0,1,4.78-1.14,10.71,10.71,0,0,1,10.64,9.93l.15,2.22,2.23.15a7.58,7.58,0,0,1-.5,15.14Z" fill="url(#未命名的渐变_61)"/></svg>