<svg id="图层_1" data-name="图层 1" xmlns="http://www.w3.org/2000/svg" xmlns:xlink="http://www.w3.org/1999/xlink" viewBox="0 0 80.67 82.67"><defs><linearGradient id="未命名的渐变_57" x1="40.34" y1="81.15" x2="40.34" y2="1.21" gradientUnits="userSpaceOnUse"><stop offset="0" stop-color="#56c5f4"/><stop offset="1" stop-color="#007ce9"/></linearGradient></defs><title>操作简单</title><rect width="80.67" height="82.67" rx="4.97" ry="4.97" fill="url(#未命名的渐变_57)"/><rect x="19.43" y="38.13" width="26.82" height="26.82" fill="none" stroke="#fff" stroke-miterlimit="10" stroke-width="2"/><path d="M23.15,38a3.46,3.46,0,1,1-3.46-3.46A3.46,3.46,0,0,1,23.15,38Z" fill="#fff" stroke="#5b5b5b" stroke-miterlimit="10" stroke-width="2"/><path d="M49.71,38a3.46,3.46,0,1,1-3.46-3.46A3.46,3.46,0,0,1,49.71,38Z" fill="#fff" stroke="#5b5b5b" stroke-miterlimit="10" stroke-width="2"/><path d="M23.15,65a3.46,3.46,0,1,1-3.46-3.46A3.46,3.46,0,0,1,23.15,65Z" fill="#fff" stroke="#5b5b5b" stroke-miterlimit="10" stroke-width="2"/><path d="M49.71,65a3.46,3.46,0,1,1-3.46-3.46A3.46,3.46,0,0,1,49.71,65Z" fill="#fff" stroke="#5b5b5b" stroke-miterlimit="10" stroke-width="2"/><path d="M48.53,21.26l-1,14.06a1.09,1.09,0,0,0,1.16,1.16l14.05-1a1.09,1.09,0,0,0,.69-1.85L60.75,31a1.09,1.09,0,0,1,0-1.53l6.65-6.65a1.09,1.09,0,0,0,0-1.53l-4.68-4.69a1.09,1.09,0,0,0-1.53,0l-6.65,6.65a1.09,1.09,0,0,1-1.53,0l-2.64-2.63A1.08,1.08,0,0,0,48.53,21.26Z" fill="none" stroke="#fff" stroke-miterlimit="10" stroke-width="2"/></svg>