<svg id="图层_1" data-name="图层 1" xmlns="http://www.w3.org/2000/svg" xmlns:xlink="http://www.w3.org/1999/xlink" viewBox="0 0 80.51 78.6"><defs><linearGradient id="未命名的渐变_60" x1="38.74" y1="77.48" x2="38.74" gradientUnits="userSpaceOnUse"><stop offset="0" stop-color="#fce099"/><stop offset="0.99" stop-color="#f34669"/></linearGradient><linearGradient id="未命名的渐变_60-2" x1="65.53" y1="86.33" x2="65.53" y2="43.72" xlink:href="#未命名的渐变_60"/><linearGradient id="未命名的渐变_60-3" x1="65.53" y1="86.33" x2="65.53" y2="43.72" xlink:href="#未命名的渐变_60"/></defs><title>快捷下载</title><path d="M39.14,60A26.11,26.11,0,0,1,77.48,36.91h0V4.78A4.78,4.78,0,0,0,72.7,0H4.78A4.78,4.78,0,0,0,0,4.78V72.7a4.78,4.78,0,0,0,4.78,4.78h41.1A26,26,0,0,1,39.14,60Z" fill="url(#未命名的渐变_60)"/><circle cx="25.18" cy="24.21" r="10.32" transform="translate(-4.89 6.43) rotate(-13.28)" fill="#fff"/><path d="M78,61.16H70.85V56a5.32,5.32,0,0,0-10.63,0v5.13H53a2.47,2.47,0,0,0-1.74,4.22l12.5,12.5a2.47,2.47,0,0,0,3.49,0l12.5-12.5A2.47,2.47,0,0,0,78,61.16Z" fill="url(#未命名的渐变_60-2)"/><path d="M62.33,48.15h6.41a2.11,2.11,0,1,0,0-4.21H62.33a2.11,2.11,0,1,0,0,4.21Z" fill="url(#未命名的渐变_60-3)"/><path d="M65.53,24.71H41a1.5,1.5,0,0,1,0-3H65.53a1.5,1.5,0,0,1,0,3Z" fill="#fff"/><path d="M33.63,49.65H16.74a1.5,1.5,0,1,1,0-3H33.63a1.5,1.5,0,0,1,0,3Z" fill="#fff"/><path d="M33.63,63.81H16.74a1.5,1.5,0,1,1,0-3H33.63a1.5,1.5,0,0,1,0,3Z" fill="#fff"/></svg>